<?xml version="1.0" standalone="no"?>
<!DOCTYPE svg PUBLIC "-//W3C//DTD SVG 20010904//EN"
 "http://www.w3.org/TR/2001/REC-SVG-20010904/DTD/svg10.dtd">
<svg version="1.0" xmlns="http://www.w3.org/2000/svg"
 width="1024.000000pt" height="1024.000000pt" viewBox="0 0 1024.000000 1024.000000"
 preserveAspectRatio="xMidYMid meet">
<metadata>
Created by potrace 1.11, written by Peter Selinger 2001-2013
</metadata>
<g transform="translate(0.000000,1024.000000) scale(0.100000,-0.100000)"
fill="#000000" stroke="none">
<path d="M0 5120 l0 -5120 5120 0 5120 0 0 5120 0 5120 -5120 0 -5120 0 0
-5120z m5330 3053 c0 -5 -9 -34 -20 -67 -43 -129 -54 -228 -54 -481 0 -166 6
-279 17 -367 18 -132 61 -376 77 -439 l10 -36 198 -6 c677 -23 1076 -166 1197
-429 14 -30 28 -76 32 -103 l6 -48 -29 6 c-204 45 -261 50 -514 51 -295 1
-508 -21 -769 -80 l-71 -16 0 -187 c-1 -657 -176 -1085 -500 -1218 -92 -38
-91 -40 -59 92 54 222 64 316 64 610 0 289 -15 416 -68 603 l-22 77 -35 -1
c-19 0 -84 -6 -144 -12 -135 -15 -354 -15 -466 -1 -390 48 -622 221 -675 502
-8 43 -15 92 -15 108 l0 29 53 -31 c123 -72 247 -118 392 -145 130 -24 381
-15 525 19 105 25 297 89 311 104 3 4 12 94 18 198 46 740 215 1185 481 1266
34 10 60 11 60 2z m1591 -5312 l29 -29 0 -1117 0 -1117 -29 -29 -29 -29 -1752
0 -1752 0 -29 29 -29 29 0 1117 0 1117 29 29 29 29 1752 0 1752 0 29 -29z
m1597 -277 c321 -65 585 -334 648 -661 99 -521 -293 -1003 -816 -1003 -523 0
-915 482 -816 1003 62 323 324 594 641 661 93 19 248 20 343 0z"/>
<path d="M3695 2631 c-11 -5 -29 -19 -40 -31 -20 -22 -20 -38 -23 -876 -3
-934 -5 -898 55 -923 21 -8 398 -11 1471 -9 l1444 3 24 28 24 28 0 860 c0 948
4 895 -62 918 -37 13 -2861 14 -2893 2z"/>
</g>
</svg>
